<?xml version="1.0" encoding="UTF-8"?>
<!DOCTYPE svg PUBLIC "-//W3C//DTD SVG 1.1//EN" "http://www.w3.org/Graphics/SVG/1.1/DTD/svg11.dtd">
<!-- Creator: CorelDRAW -->
<svg xmlns="http://www.w3.org/2000/svg" xml:space="preserve" width="62mm" height="24mm" style="shape-rendering:geometricPrecision; text-rendering:geometricPrecision; image-rendering:optimizeQuality; fill-rule:evenodd; clip-rule:evenodd"
viewBox="0 0 62 24"
 xmlns:xlink="http://www.w3.org/1999/xlink">
 <defs>
  <style type="text/css">
   <![CDATA[
    .str0 {stroke:#1F1A17;stroke-width:0.1763}
    .fil5 {fill:none}
    .fil0 {fill:#969594}
    .fil4 {fill:#DEDEDD}
    .fil2 {fill:#007CC3;fill-rule:nonzero}
    .fil3 {fill:#1F1A17;fill-rule:nonzero}
    .fil1 {fill:#DA251D;fill-rule:nonzero}
   ]]>
  </style>
 </defs>
 <g id="Warstwa_x0020_1">
  <metadata id="CorelCorpID_0Corel-Layer"/>
  <g id="_43722376">
   <polygon id="_42633136" class="fil0 str0" points="44.9894,11.505 43.8752,8.41 42.761,11.505 "/>
   <g>
    <path id="_42632264" class="fil1" d="M5.162 12.8312l0 -4.278 0.3528 0 0 4.278 -0.3528 0zm0.1764 0.6893l-0.599 -1.7397 0.0374 0.0225 0.0374 0.0212 0.0375 0.0196 0.0374 0.0182 0.0375 0.0168 0.0374 0.0153 0.0374 0.0138 0.0375 0.0124 0.0374 0.0109 0.0375 0.0095 0.0374 0.008 0.0374 0.0065 0.0375 0.0051 0.0374 0.0037 0.0375 0.0021 0.0374 0.0008 0.0374 -0.0008 0.0375 -0.0021 0.0374 -0.0037 0.0375 -0.0051 0.0374 -0.0065 0.0374 -0.008 0.0375 -0.0095 0.0374 -0.0109 0.0375 -0.0124 0.0374 -0.0138 0.0374 -0.0153 0.0375 -0.0168 0.0374 -0.0182 0.0375 -0.0196 0.0374 -0.0212 0.0374 -0.0225 0 0 -0.599 1.7397z"/>
   </g>
   <g>
    <path class="fil2" d="M56.5341 22.8312l0 -14.2779 0.3528 0 0 14.2779 -0.3528 0zm0.1764 0.6893l-0.599 -1.7397 0.0374 0.0225 0.0374 0.0212 0.0375 0.0196 0.0374 0.0182 0.0375 0.0168 0.0374 0.0153 0.0374 0.0138 0.0375 0.0124 0.0374 0.0109 0.0375 0.0095 0.0374 0.008 0.0374 0.0065 0.0375 0.0051 0.0374 0.0037 0.0375 0.0021 0.0374 0.0008 0.0374 -0.0008 0.0375 -0.0021 0.0374 -0.0037 0.0375 -0.0051 0.0374 -0.0065 0.0374 -0.008 0.0375 -0.0095 0.0374 -0.0109 0.0375 -0.0124 0.0374 -0.0138 0.0374 -0.0153 0.0375 -0.0168 0.0374 -0.0182 0.0375 -0.0196 0.0374 -0.0212 0.0374 -0.0225 0 0 -0.599 1.7397z"/>
   </g>
   <path class="fil3" d="M7.5749 15.1974l-0.3309 1.1106 0.3683 0c0.1651,0 0.2893,-0.0261 0.3711,-0.0769 0.0819,-0.0508 0.1666,-0.1595 0.2533,-0.3267l0.0784 0 -0.2914 1.0209 -0.0826 0c0.0205,-0.0825 0.0311,-0.1503 0.0311,-0.2046 0,-0.084 -0.0283,-0.1489 -0.084,-0.1947 -0.0557,-0.0466 -0.1602,-0.0699 -0.3133,-0.0699l-0.3718 0 -0.2441 0.846c-0.0438,0.1503 -0.0663,0.2497 -0.0663,0.2991 0,0.0515 0.019,0.0903 0.0571,0.1179 0.0381,0.0282 0.1305,0.0465 0.278,0.0564l-0.0247 0.0762 -1.1077 0 0.0268 -0.0762c0.1072,-0.0028 0.1792,-0.0127 0.2145,-0.0289 0.055,-0.024 0.0959,-0.0558 0.122,-0.0953 0.0374,-0.0564 0.0812,-0.1728 0.1327,-0.3492l0.4939 -1.6891c0.0395,-0.1362 0.0599,-0.2434 0.0599,-0.3203 0,-0.036 -0.0091,-0.0664 -0.0268,-0.0918 -0.0183,-0.0254 -0.0444,-0.0444 -0.0797,-0.0571 -0.0353,-0.012 -0.1051,-0.0183 -0.2095,-0.0183l0.0247 -0.077 2.1745 0 -0.2068 0.7091 -0.079 0c0.0155,-0.0853 0.0233,-0.1552 0.0233,-0.2109 0,-0.091 -0.0254,-0.163 -0.0755,-0.2159 -0.0508,-0.0529 -0.115,-0.0903 -0.1933,-0.1122 -0.0551,-0.0141 -0.1785,-0.0212 -0.3704,-0.0212l-0.5518 0z"/>
   <path id="1" class="fil3" d="M9.1153 17.2938l0.4544 -0.221 0.0452 0 0 1.5776c0,0.1044 0.0047,0.1703 0.0131,0.1957 0.0094,0.0254 0.0273,0.0451 0.0546,0.0592 0.0273,0.0141 0.0837,0.0217 0.1684,0.0235l0 0.0508 -0.7027 0 0 -0.0508c0.0875,-0.0018 0.1448,-0.0094 0.1702,-0.0225 0.0264,-0.0141 0.0443,-0.032 0.0537,-0.0546 0.0103,-0.0216 0.016,-0.0894 0.016,-0.2013l0 -1.0085c0,-0.1364 -0.0048,-0.2239 -0.0142,-0.2624 -0.0065,-0.0292 -0.0178,-0.0508 -0.0348,-0.065 -0.0169,-0.0131 -0.0376,-0.0207 -0.0621,-0.0207 -0.0338,0 -0.0809,0.0151 -0.1411,0.0433l-0.0207 -0.0433z"/>
   <path class="fil3" d="M21.3731 2.0864l0.7133 -0.1157 -0.2977 1.004c0.2413,-0.4121 0.4607,-0.6999 0.6576,-0.8636 0.1115,-0.0938 0.2025,-0.1404 0.273,-0.1404 0.0452,0 0.0812,0.0134 0.1073,0.0402 0.0261,0.0268 0.0395,0.0656 0.0395,0.1164 0,0.091 -0.0233,0.1778 -0.0706,0.2604 -0.0331,0.0621 -0.0804,0.0931 -0.1425,0.0931 -0.0317,0 -0.0593,-0.0099 -0.0818,-0.031 -0.0226,-0.0205 -0.0367,-0.0523 -0.0424,-0.0946 -0.0028,-0.0268 -0.0091,-0.0437 -0.0183,-0.0522 -0.0113,-0.0106 -0.024,-0.0162 -0.0395,-0.0162 -0.0233,0 -0.0452,0.0056 -0.0663,0.0162 -0.0353,0.0198 -0.0904,0.0734 -0.163,0.1616 -0.1143,0.1347 -0.2385,0.3097 -0.3719,0.5249 -0.0578,0.091 -0.1079,0.1933 -0.1488,0.3076 -0.0579,0.1574 -0.091,0.2519 -0.0995,0.2837l-0.0663 0.2603 -0.3161 0 0.3824 -1.2834c0.0444,-0.1489 0.0663,-0.2554 0.0663,-0.3189 0,-0.0247 -0.0106,-0.0452 -0.031,-0.0614 -0.0275,-0.0226 -0.0642,-0.0331 -0.1094,-0.0331 -0.0289,0 -0.0825,0.0063 -0.1594,0.0183l-0.0149 -0.0762z"/>
   <path id="1" class="fil3" d="M23.1309 3.2832l0.4544 -0.221 0.0452 0 0 1.5776c0,0.1044 0.0047,0.1703 0.0131,0.1957 0.0094,0.0254 0.0273,0.0451 0.0546,0.0592 0.0273,0.0141 0.0837,0.0217 0.1684,0.0235l0 0.0508 -0.7027 0 0 -0.0508c0.0875,-0.0018 0.1448,-0.0094 0.1702,-0.0225 0.0264,-0.0141 0.0443,-0.032 0.0537,-0.0546 0.0103,-0.0216 0.016,-0.0894 0.016,-0.2013l0 -1.0085c0,-0.1364 -0.0048,-0.2239 -0.0142,-0.2624 -0.0065,-0.0292 -0.0178,-0.0508 -0.0348,-0.065 -0.0169,-0.0131 -0.0376,-0.0207 -0.0621,-0.0207 -0.0338,0 -0.0809,0.0151 -0.1411,0.0433l-0.0207 -0.0433z"/>
   <path class="fil3" d="M48.0431 2.3404l0.7133 -0.1157 -0.2977 1.004c0.2413,-0.4121 0.4607,-0.6999 0.6576,-0.8636 0.1115,-0.0938 0.2025,-0.1404 0.273,-0.1404 0.0452,0 0.0812,0.0134 0.1073,0.0402 0.0261,0.0268 0.0395,0.0656 0.0395,0.1164 0,0.091 -0.0233,0.1778 -0.0706,0.2604 -0.0331,0.0621 -0.0804,0.0931 -0.1425,0.0931 -0.0317,0 -0.0593,-0.0099 -0.0818,-0.031 -0.0226,-0.0205 -0.0367,-0.0523 -0.0424,-0.0946 -0.0028,-0.0268 -0.0091,-0.0437 -0.0183,-0.0522 -0.0113,-0.0106 -0.024,-0.0162 -0.0395,-0.0162 -0.0233,0 -0.0452,0.0056 -0.0663,0.0162 -0.0353,0.0198 -0.0904,0.0734 -0.163,0.1616 -0.1143,0.1347 -0.2385,0.3097 -0.3719,0.5249 -0.0578,0.091 -0.1079,0.1933 -0.1488,0.3076 -0.0579,0.1574 -0.091,0.2519 -0.0995,0.2837l-0.0663 0.2603 -0.3161 0 0.3824 -1.2834c0.0444,-0.1489 0.0663,-0.2554 0.0663,-0.3189 0,-0.0247 -0.0106,-0.0452 -0.031,-0.0614 -0.0275,-0.0226 -0.0642,-0.0331 -0.1094,-0.0331 -0.0289,0 -0.0825,0.0063 -0.1594,0.0183l-0.0149 -0.0762z"/>
   <path id="1" class="fil3" d="M50.7633 4.8637l-0.1308 0.3593 -1.1025 0 0 -0.0508c0.3246,-0.2963 0.5532,-0.5371 0.6849,-0.7253 0.1326,-0.1872 0.1985,-0.3584 0.1985,-0.5136 0,-0.1185 -0.0358,-0.2164 -0.1082,-0.2926 -0.0725,-0.0762 -0.16,-0.1138 -0.2606,-0.1138 -0.0922,0 -0.174,0.0263 -0.2474,0.08 -0.0734,0.0545 -0.127,0.1326 -0.1618,0.237l-0.0508 0c0.0225,-0.1702 0.0818,-0.301 0.1768,-0.3913 0.095,-0.0913 0.2136,-0.1364 0.3556,-0.1364 0.1524,0 0.2785,0.048 0.3801,0.1458 0.1016,0.0969 0.1524,0.2126 0.1524,0.3443 0,0.095 -0.0226,0.1891 -0.0659,0.2841 -0.0686,0.1486 -0.1787,0.3067 -0.3311,0.4722 -0.2286,0.2503 -0.3716,0.4008 -0.429,0.4525l0.4883 0c0.0987,0 0.1683,-0.0037 0.2088,-0.0113 0.0395,-0.0075 0.0762,-0.0225 0.1082,-0.0451 0.032,-0.0216 0.0602,-0.0536 0.0837,-0.095l0.0508 0z"/>
   <path class="fil3" d="M52.7724 15.1974l-0.3309 1.1106 0.3683 0c0.1651,0 0.2893,-0.0261 0.3711,-0.0769 0.0819,-0.0508 0.1666,-0.1595 0.2533,-0.3267l0.0784 0 -0.2914 1.0209 -0.0826 0c0.0205,-0.0825 0.0311,-0.1503 0.0311,-0.2046 0,-0.084 -0.0283,-0.1489 -0.084,-0.1947 -0.0557,-0.0466 -0.1602,-0.0699 -0.3133,-0.0699l-0.3718 0 -0.2441 0.846c-0.0438,0.1503 -0.0663,0.2497 -0.0663,0.2991 0,0.0515 0.019,0.0903 0.0571,0.1179 0.0381,0.0282 0.1305,0.0465 0.278,0.0564l-0.0247 0.0762 -1.1077 0 0.0268 -0.0762c0.1072,-0.0028 0.1792,-0.0127 0.2145,-0.0289 0.055,-0.024 0.0959,-0.0558 0.122,-0.0953 0.0374,-0.0564 0.0812,-0.1728 0.1327,-0.3492l0.4939 -1.6891c0.0395,-0.1362 0.0599,-0.2434 0.0599,-0.3203 0,-0.036 -0.0091,-0.0664 -0.0268,-0.0918 -0.0183,-0.0254 -0.0444,-0.0444 -0.0797,-0.0571 -0.0353,-0.012 -0.1051,-0.0183 -0.2095,-0.0183l0.0247 -0.077 2.1745 0 -0.2068 0.7091 -0.079 0c0.0155,-0.0853 0.0233,-0.1552 0.0233,-0.2109 0,-0.091 -0.0254,-0.163 -0.0755,-0.2159 -0.0508,-0.0529 -0.115,-0.0903 -0.1933,-0.1122 -0.0551,-0.0141 -0.1785,-0.0212 -0.3704,-0.0212l-0.5518 0z"/>
   <path id="1" class="fil3" d="M55.2752 18.6203l-0.1308 0.3593 -1.1025 0 0 -0.0508c0.3246,-0.2963 0.5532,-0.5371 0.6849,-0.7253 0.1326,-0.1872 0.1985,-0.3584 0.1985,-0.5136 0,-0.1185 -0.0358,-0.2164 -0.1082,-0.2926 -0.0725,-0.0762 -0.16,-0.1138 -0.2606,-0.1138 -0.0922,0 -0.174,0.0263 -0.2474,0.08 -0.0734,0.0545 -0.127,0.1326 -0.1618,0.237l-0.0508 0c0.0225,-0.1702 0.0818,-0.301 0.1768,-0.3913 0.095,-0.0913 0.2136,-0.1364 0.3556,-0.1364 0.1524,0 0.2785,0.048 0.3801,0.1458 0.1016,0.0969 0.1524,0.2126 0.1524,0.3443 0,0.095 -0.0226,0.1891 -0.0659,0.2841 -0.0686,0.1486 -0.1787,0.3067 -0.3311,0.4722 -0.2286,0.2503 -0.3716,0.4008 -0.429,0.4525l0.4883 0c0.0987,0 0.1683,-0.0037 0.2088,-0.0113 0.0395,-0.0075 0.0762,-0.0225 0.1082,-0.0451 0.032,-0.0216 0.0602,-0.0536 0.0837,-0.095l0.0508 0z"/>
   <g>
    <path class="fil1" d="M5.3115 5.2851l1.0504 -0.4595 0 0 -0.0136 0.0287 -0.0128 0.0287 -0.0119 0.0287 -0.011 0.0287 -0.0101 0.0288 -0.0092 0.0287 -0.0083 0.0287 -0.0075 0.0287 -0.0066 0.0287 -0.0057 0.0288 -0.0049 0.0287 -0.0039 0.0287 -0.0031 0.0287 -0.0022 0.0288 -0.0013 0.0287 -0.0005 0.0287 0.0005 0.0287 0.0013 0.0287 0.0022 0.0288 0.0031 0.0287 0.0039 0.0287 0.0049 0.0287 0.0057 0.0288 0.0066 0.0287 0.0075 0.0287 0.0083 0.0287 0.0092 0.0287 0.0101 0.0288 0.011 0.0287 0.0119 0.0287 0.0128 0.0287 0.0136 0.0287 -1.0504 -0.4595zm38.5026 0.0882l-37.7805 0 0 -0.1764 37.7805 0 0 0.1764z"/>
   </g>
   <g>
    <path class="fil2" d="M55.9975 5.8809l-12.1834 0 0 -0.1756 12.1834 0 0 0.1756zm0.7221 -0.0878l-1.0504 0.4595 0.0136 -0.0287 0.0128 -0.0287 0.0119 -0.0287 0.011 -0.0287 0.0101 -0.0288 0.0092 -0.0287 0.0083 -0.0287 0.0075 -0.0287 0.0066 -0.0287 0.0057 -0.0288 0.0049 -0.0287 0.0039 -0.0287 0.0031 -0.0287 0.0022 -0.0288 0.0013 -0.0287 0.0005 -0.0287 -0.0005 -0.0287 -0.0013 -0.0287 -0.0022 -0.0288 -0.0031 -0.0287 -0.0039 -0.0287 -0.0049 -0.0287 -0.0057 -0.0288 -0.0066 -0.0287 -0.0075 -0.0287 -0.0083 -0.0287 -0.0092 -0.0287 -0.0101 -0.0288 -0.011 -0.0287 -0.0119 -0.0287 -0.0128 -0.0287 -0.0136 -0.0287 0 0 1.0504 0.4595z"/>
   </g>
   <polygon class="fil4 str0" points="0.9166,6.7785 61.0834,6.7785 61.0834,8.5065 0.9166,8.5065 "/>
   <g>
    <line class="fil5 str0" x1="39.5865" y1="6.7785" x2="39.5865" y2= "8.5533" />
    <line class="fil5 str0" x1="43.8676" y1="6.7785" x2="43.8676" y2= "8.5533" />
    <line class="fil5 str0" x1="1.0575" y1="6.7785" x2="1.0575" y2= "8.5533" />
    <line class="fil5 str0" x1="48.1488" y1="6.7785" x2="48.1488" y2= "8.5533" />
    <line class="fil5 str0" x1="5.3384" y1="6.7785" x2="5.3384" y2= "8.5533" />
    <line class="fil5 str0" x1="52.4294" y1="6.7785" x2="52.4294" y2= "8.5533" />
    <line class="fil5 str0" x1="9.6196" y1="6.7785" x2="9.6196" y2= "8.5533" />
    <line class="fil5 str0" x1="56.7105" y1="6.7785" x2="56.7105" y2= "8.5533" />
    <line class="fil5 str0" x1="13.9007" y1="6.7785" x2="13.9007" y2= "8.5533" />
    <line class="fil5 str0" x1="60.9917" y1="6.7785" x2="60.9917" y2= "8.5533" />
    <line class="fil5 str0" x1="18.1813" y1="6.7785" x2="18.1813" y2= "8.5533" />
    <line class="fil5 str0" x1="22.4625" y1="6.7785" x2="22.4625" y2= "8.5533" />
    <line class="fil5 str0" x1="26.7436" y1="6.7785" x2="26.7436" y2= "8.5533" />
    <line class="fil5 str0" x1="31.0247" y1="6.7785" x2="31.0247" y2= "8.5533" />
    <line class="fil5 str0" x1="35.3056" y1="6.7785" x2="35.3056" y2= "8.5533" />
   </g>
   <g>
    <path class="fil3" d="M22.7177 1.4482l-1.3781 0 0 -0.1764 1.3781 0 0 0.1764zm0.7221 -0.0882l-1.0504 0.4595 0.0136 -0.0287 0.0128 -0.0287 0.0119 -0.0287 0.011 -0.0287 0.0101 -0.0288 0.0092 -0.0287 0.0083 -0.0287 0.0075 -0.0287 0.0066 -0.0287 0.0057 -0.0288 0.0049 -0.0287 0.0039 -0.0287 0.0031 -0.0287 0.0022 -0.0288 0.0013 -0.0287 0.0005 -0.0287 -0.0005 -0.0287 -0.0013 -0.0287 -0.0022 -0.0288 -0.0031 -0.0287 -0.0039 -0.0287 -0.0049 -0.0287 -0.0057 -0.0288 -0.0066 -0.0287 -0.0075 -0.0287 -0.0083 -0.0287 -0.0092 -0.0287 -0.0101 -0.0288 -0.011 -0.0287 -0.0119 -0.0287 -0.0128 -0.0287 -0.0136 -0.0287 0 0 1.0504 0.4595z"/>
   </g>
   <g>
    <path class="fil3" d="M49.3041 1.7582l-1.3783 0 0 -0.1764 1.3783 0 0 0.1764zm0.7221 -0.0882l-1.0504 0.4595 0.0136 -0.0287 0.0128 -0.0287 0.0119 -0.0287 0.011 -0.0287 0.0101 -0.0288 0.0092 -0.0287 0.0083 -0.0287 0.0075 -0.0287 0.0066 -0.0287 0.0057 -0.0288 0.0049 -0.0287 0.0039 -0.0287 0.0031 -0.0287 0.0022 -0.0288 0.0013 -0.0287 0.0005 -0.0287 -0.0005 -0.0287 -0.0013 -0.0287 -0.0022 -0.0288 -0.0031 -0.0287 -0.0039 -0.0287 -0.0049 -0.0287 -0.0057 -0.0288 -0.0066 -0.0287 -0.0075 -0.0287 -0.0083 -0.0287 -0.0092 -0.0287 -0.0101 -0.0288 -0.011 -0.0287 -0.0119 -0.0287 -0.0128 -0.0287 -0.0136 -0.0287 0 0 1.0504 0.4595z"/>
   </g>
   <g>
    <path class="fil3" d="M9.0799 14.4142l-2.0641 0 0 -0.1764 2.0641 0 0 0.1764zm0.7221 -0.0882l-1.0504 0.4595 0.0136 -0.0287 0.0128 -0.0287 0.0119 -0.0287 0.011 -0.0287 0.0101 -0.0288 0.0092 -0.0287 0.0083 -0.0287 0.0075 -0.0287 0.0066 -0.0287 0.0057 -0.0288 0.0049 -0.0287 0.0039 -0.0287 0.0031 -0.0287 0.0022 -0.0288 0.0013 -0.0287 0.0005 -0.0287 -0.0005 -0.0287 -0.0013 -0.0287 -0.0022 -0.0288 -0.0031 -0.0287 -0.0039 -0.0287 -0.0049 -0.0287 -0.0057 -0.0288 -0.0066 -0.0287 -0.0075 -0.0287 -0.0083 -0.0287 -0.0092 -0.0287 -0.0101 -0.0288 -0.011 -0.0287 -0.0119 -0.0287 -0.0128 -0.0287 -0.0136 -0.0287 0 0 1.0504 0.4595z"/>
   </g>
   <g>
    <path class="fil3" d="M54.101 14.4142l-2.0641 0 0 -0.1764 2.0641 0 0 0.1764zm0.7221 -0.0882l-1.0504 0.4595 0.0136 -0.0287 0.0128 -0.0287 0.0119 -0.0287 0.011 -0.0287 0.0101 -0.0288 0.0092 -0.0287 0.0083 -0.0287 0.0075 -0.0287 0.0066 -0.0287 0.0057 -0.0288 0.0049 -0.0287 0.0039 -0.0287 0.0031 -0.0287 0.0022 -0.0288 0.0013 -0.0287 0.0005 -0.0287 -0.0005 -0.0287 -0.0013 -0.0287 -0.0022 -0.0288 -0.0031 -0.0287 -0.0039 -0.0287 -0.0049 -0.0287 -0.0057 -0.0288 -0.0066 -0.0287 -0.0075 -0.0287 -0.0083 -0.0287 -0.0092 -0.0287 -0.0101 -0.0288 -0.011 -0.0287 -0.0119 -0.0287 -0.0128 -0.0287 -0.0136 -0.0287 0 0 1.0504 0.4595z"/>
   </g>
  </g>
 </g>
</svg>
